<svg width="120" height="18" viewBox="0 0 120 18" fill="none" xmlns="http://www.w3.org/2000/svg">
<path d="M117.127 1.82637C117.127 1.03038 117.767 0.389709 118.563 0.389709C119.359 0.389709 120 1.03038 120 1.82637C120 2.60295 119.359 3.26303 118.563 3.26303C117.748 3.24362 117.127 2.60295 117.127 1.82637ZM119.825 1.80696C119.825 1.08863 119.282 0.525609 118.563 0.525609C117.845 0.525609 117.282 1.10804 117.282 1.80696C117.282 2.50587 117.826 3.06889 118.544 3.06889C119.282 3.0883 119.825 2.50587 119.825 1.80696ZM117.961 1.01097H118.641C118.855 1.01097 119.01 1.06921 119.107 1.1857C119.185 1.26335 119.243 1.37984 119.243 1.51574C119.243 1.76813 119.107 1.92344 118.913 1.98168L119.282 2.52528H118.893L118.563 2.03992H118.311V2.52528H117.981V1.01097H117.961ZM118.641 1.74871C118.816 1.74871 118.893 1.65164 118.893 1.53516C118.893 1.37984 118.796 1.3216 118.622 1.3216H118.292V1.76813H118.641V1.74871Z" fill="#213368"/>
<path d="M22.9866 0.3703H0L2.48503 4.68028H8.98884V17.6102H14.0171V4.68028H20.5015L22.9866 0.3703Z" fill="#213368"/>
<path d="M54.2437 4.68028H67.2124L69.6975 0.3703H53.5253C50.5549 0.3703 48.1281 2.77768 48.1281 5.76749C48.1281 8.73788 50.5355 11.1647 53.5253 11.1647H63.5819C64.1838 11.1647 64.6692 11.65 64.6692 12.2519C64.6692 12.8537 64.1838 13.3391 63.5819 13.3391H51.3509L48.8659 17.6102H64.3197C67.2901 17.6102 69.7169 15.2029 69.7169 12.213C69.7169 9.24265 67.3095 6.81586 64.3197 6.81586H54.2631C53.6612 6.81586 53.1759 6.3305 53.1759 5.72866C53.1759 5.16564 53.6612 4.68028 54.2437 4.68028Z" fill="#213368"/>
<path d="M79.4046 13.3002C78.8028 13.3002 78.3174 12.8149 78.3174 12.213V5.76749C78.3174 5.16564 78.8028 4.68028 79.4046 4.68028H90.9173L93.4024 0.3703H78.6669C75.6965 0.3703 73.2697 2.77768 73.2697 5.76749V12.2325C73.2697 15.2029 75.6771 17.6296 78.6669 17.6296H93.4024L90.9173 13.3197L79.4046 13.3002Z" fill="#213368"/>
<path d="M95.5574 5.76749V12.2325C95.5574 15.2029 97.9647 17.6296 100.955 17.6296H110.293C113.263 17.6296 115.69 15.2223 115.69 12.2325V5.76749C115.69 2.79709 113.283 0.3703 110.293 0.3703H100.955C97.9842 0.3703 95.5574 2.79709 95.5574 5.76749ZM109.575 13.3002H101.673C101.071 13.3002 100.586 12.8149 100.586 12.213V5.76749C100.586 5.16564 101.071 4.68028 101.673 4.68028H109.575C110.176 4.68028 110.662 5.16564 110.662 5.76749V12.2325C110.662 12.8343 110.176 13.3002 109.575 13.3002Z" fill="#213368"/>
<path d="M36.7707 0.3703H30.7717L20.8316 17.6102H26.2482L27.5878 15.2805C27.7819 14.9505 28.1314 14.7369 28.5197 14.7369H39.0034C39.3917 14.7369 39.7411 14.9505 39.9353 15.2805L41.2749 17.6102H46.6915L36.7707 0.3703ZM30.4611 10.4269L33.7809 4.68028L37.1008 10.4269H30.4611Z" fill="#213368"/>
</svg>
